<?xml version="1.0" encoding="UTF-8" standalone="no"?>
<!-- Created with Inkscape (http://www.inkscape.org/) -->

<svg
   width="1024"
   height="1024"
   viewBox="0 0 270.93333 270.93333"
   version="1.1"
   id="svg5"
   sodipodi:docname="icon.svg"
   inkscape:export-filename="C:\Users\Jon\Documents\Code\DiceDice\assets\icon.png"
   inkscape:export-xdpi="96"
   inkscape:export-ydpi="96"
   inkscape:version="1.1.2 (b8e25be833, 2022-02-05)"
   xmlns:inkscape="http://www.inkscape.org/namespaces/inkscape"
   xmlns:sodipodi="http://sodipodi.sourceforge.net/DTD/sodipodi-0.dtd"
   xmlns="http://www.w3.org/2000/svg"
   xmlns:svg="http://www.w3.org/2000/svg">
  <sodipodi:namedview
     id="namedview7"
     pagecolor="#ffffff"
     bordercolor="#666666"
     borderopacity="1.0"
     inkscape:pageshadow="2"
     inkscape:pageopacity="0.0"
     inkscape:pagecheckerboard="true"
     inkscape:document-units="px"
     showgrid="false"
     units="px"
     height="1024px"
     inkscape:zoom="0.77771465"
     inkscape:cx="811.99448"
     inkscape:cy="781.13483"
     inkscape:window-width="2385"
     inkscape:window-height="1601"
     inkscape:window-x="1225"
     inkscape:window-y="179"
     inkscape:window-maximized="0"
     inkscape:current-layer="layer1" />
  <defs
     id="defs2" />
  <g
     inkscape:label="Layer 1"
     inkscape:groupmode="layer"
     id="layer1">
    <g
       id="g9218">
      <ellipse
         style="fill:#ffffff;fill-opacity:1;stroke:none;stroke-width:0.1;stroke-linejoin:round;stroke-miterlimit:10;stroke-opacity:1"
         id="path5866"
         cx="122.47423"
         cy="91.081802"
         rx="78.587631"
         ry="53.582474" />
      <ellipse
         style="fill:#ffffff;fill-opacity:1;stroke:none;stroke-width:0.1;stroke-linejoin:round;stroke-miterlimit:10;stroke-opacity:1"
         id="path5868"
         cx="187.75928"
         cy="119.90338"
         rx="45.622173"
         ry="77.300949"
         inkscape:export-filename="C:\Users\Jon\Documents\Code\DiceDice\assets\path5868.png"
         inkscape:export-xdpi="96"
         inkscape:export-ydpi="96" />
      <ellipse
         style="fill:#ffffff;fill-opacity:1;stroke:none;stroke-width:0.1;stroke-linejoin:round;stroke-miterlimit:10;stroke-opacity:1"
         id="path5892"
         cx="30.421766"
         cy="177.42775"
         rx="26.785837"
         ry="62.021107"
         transform="rotate(-59.352554)" />
      <path
         style="fill:#ffffff;fill-opacity:1;stroke:none;stroke-width:1;stroke-opacity:1"
         d="m 139.71962,8.4470147 c 2.24473,0.189614 5.04794,0.631302 6.22935,0.981511 5.69233,1.6874243 6.98864,2.1610683 9.41607,3.4403203 4.27747,2.254287 7.75397,4.198121 7.98317,4.463707 0.11813,0.136918 1.18144,0.726697 2.36285,1.310672 1.18143,0.583975 2.6391,1.38154 3.23925,1.772337 0.60015,0.390799 2.16632,1.294505 3.4804,2.008226 1.31405,0.713704 3.62623,2.060413 5.13815,2.992711 1.51193,0.932262 4.10223,2.440138 5.75624,3.350826 1.654,0.910671 3.97389,2.188037 5.15531,2.838608 1.18143,0.65058 2.34139,1.327548 2.57767,1.504412 0.23629,0.176864 3.90946,2.281211 8.1626,4.676326 20.37443,11.473719 31.4809,17.878683 34.2321,19.741258 5.63527,3.815066 11.38593,12.905339 13.05737,20.640293 0.91422,4.230795 0.88141,103.476618 -0.0356,107.760958 -1.62592,6.3466 -4.86347,12.41494 -8.84315,16.9373 -2.47375,2.78128 -2.86611,2.88304 -1.85168,0.48027 1.74846,-4.14141 0.26723,-10.77547 -3.30187,-14.78827 -3.62065,-3.53437 -8.70363,-5.95747 -12.46662,-8.11934 -2.21965,-1.27656 -8.60786,-4.86393 -14.19605,-7.97195 -10.1579,-7.10583 -16.59195,-8.94881 -27.8602,-15.66345 -1.73851,-1.05669 -10.3798,-5.93136 -10.51438,-5.93136 -0.15098,0 -6.27848,-3.51158 -13.5438,-7.76175 -4.86217,-2.99762 -9.80523,-7.31349 -12.27208,-12.17829 -2.62074,-5.2936 -2.5011,-3.33633 -2.64086,-43.197779 -0.0914,-26.085156 -0.26714,-36.830782 -0.61286,-37.493223 -1.05057,-2.012914 -4.32811,-2.139477 -5.79864,-0.223908 -0.44728,0.582606 -0.56601,7.959141 -0.59679,37.079377 -0.0431,40.631793 0.0621,39.115063 -3.09634,44.688763 -2.13579,3.76902 -4.79671,6.61123 -8.57719,9.16152 -25.472343,13.88866 -49.862051,28.42974 -65.808446,37.37691 -8.085306,4.25923 -16.926651,10.642 -18.449218,13.4344 -0.968856,2.35824 -2.381992,10.12268 -1.149726,11.6224 0.435131,0.51888 0.414227,0.63776 -0.112039,0.63776 -3.900965,-3.16111 -7.10384,-8.56635 -8.856151,-12.83613 -2.270188,-5.65925 -2.263311,-5.46186 -2.119849,-60.93092 0.132971,-51.445621 0.132971,-51.445621 1.584576,-55.594157 1.350892,-3.860983 4.719999,-9.827022 7.052357,-12.488401 2.071388,-2.363586 13.429433,-10.361394 14.714711,-10.361394 0.09092,0 2.346977,-1.2741 5.013377,-2.831371 6.231935,-3.639608 16.206427,-9.415783 21.280623,-12.323443 9.525005,-5.45812 12.416993,-7.12925 13.425332,-7.757857 0.590706,-0.368255 1.460659,-0.87751 1.933247,-1.13167 0.472559,-0.254187 2.985787,-1.70838 5.584914,-3.231554 C 120.50598,9.2302707 125.98301,7.2865285 139.71965,8.4469067 Z m 18.59441,33.4071773 c -5.20786,3.75656 -3.917,14.541287 2.59257,21.660272 8.60536,9.410938 19.22471,5.282552 17.07232,-6.637043 -1.97918,-10.96035 -13.30362,-19.611793 -19.66489,-15.023229 z m 53.44432,27.576297 c -11.31918,3.995205 -1.68065,27.870403 11.25142,27.870403 8.72432,0 9.86537,-12.504667 1.97321,-21.624243 -4.93852,-5.70661 -9.13619,-7.689234 -13.22463,-6.24616 z M 78.263531,83.918961 c -2.721243,1.364702 -8.061287,7.09269 -9.954545,10.677711 -8.182033,15.493348 1.780403,24.646528 13.327265,12.244668 11.670554,-12.534698 9.213425,-29.234343 -3.37272,-22.922379 z m 80.754929,14.348661 c -9.08476,6.058938 -0.10123,26.456728 11.65202,26.456728 2.08259,0 3.14055,-0.21739 4.0813,-0.83859 1.92337,-1.51708 1.90745,-1.54629 2.7622,-3.38613 4.86687,-10.40542 -9.79791,-28.032788 -18.49552,-22.232008 z m 52.1238,27.145998 c -9.14154,4.37961 -2.32605,24.38066 9.10839,26.72991 12.89248,2.64881 13.10314,-17.71697 0.26578,-25.69465 -3.40986,-2.11905 -6.41845,-2.4513 -9.37417,-1.03526 z M 143.918,165.09198 c 7.59867,2.43517 10.43777,7.16447 7.38005,12.29339 -2.38849,3.23418 -8.84055,5.35512 -12.26485,5.80518 -14.29191,1.75762 -25.02017,-6.46094 -18.55952,-14.2178 3.76733,-4.52322 15.4205,-6.45212 23.44432,-3.8807 z m 49.93255,26.04566 c 7.31843,0.79421 13.36321,5.53489 12.75736,10.00509 -1.41558,10.44492 -27.6255,12.54404 -33.25482,2.66334 -4.25341,-7.46564 6.60416,-14.17617 20.49746,-12.66843 z m -107.575376,0.12463 c 4.530853,0.64033 11.105678,3.59018 12.444926,8.29166 1.6162,8.52604 -16.86163,13.93605 -28.399203,8.31484 -13.627942,-6.63968 -1.604636,-19.15457 15.954277,-16.60655 z m 55.861916,2.74331 c 14.06825,3.92892 9.06239,15.11512 -6.76406,15.11512 -14.8924,0 -20.44519,-10.29713 -7.8973,-14.64481 2.97107,-1.02943 11.66113,-1.30819 14.66136,-0.47031 z m -1.34343,25.17049 c 8.47188,1.75319 13.00883,6.62442 10.68457,11.47182 -3.20105,5.1629 -10.85093,6.6353 -16.26951,6.71014 -18.13306,0.0547 -22.49748,-14.35833 -5.44392,-17.97786 2.1475,-0.4558 9.18341,-0.586 11.02886,-0.2041 z"
         id="path5254"
         sodipodi:nodetypes="csssssssssssssccsccccsccssscsccccccsssssssssccssssssssssssssccssssscccsccssssccssccsscsccss" />
      <ellipse
         style="fill:#ffffff;fill-opacity:1;stroke:none;stroke-width:0.0999998;stroke-linejoin:round;stroke-miterlimit:10;stroke-opacity:1"
         id="path5745"
         cx="137.95967"
         cy="166.09248"
         rx="98.953514"
         ry="68.309837" />
      <ellipse
         style="fill:#ffffff;fill-opacity:1;stroke:none;stroke-width:0.0999998;stroke-linejoin:round;stroke-miterlimit:10;stroke-opacity:1"
         id="path5747"
         cx="137.16167"
         cy="131.13956"
         rx="101.98595"
         ry="63.042961" />
      <ellipse
         style="fill:#ffffff;fill-opacity:1;stroke:none;stroke-width:0.1;stroke-linejoin:round;stroke-miterlimit:10;stroke-opacity:1"
         id="path6233"
         cx="59.876286"
         cy="186.50964"
         rx="22.963919"
         ry="23.13402" />
      <path
         style="fill:#007a5f;fill-opacity:1;stroke:none;stroke-width:0.999998;stroke-opacity:1"
         d="m 131.2137,262.47666 c -2.24472,-0.19619 -5.04793,-0.6532 -6.22934,-1.01556 -5.69233,-1.74597 -6.98864,-2.23605 -9.41608,-3.55968 -4.27747,-2.3325 -7.75396,-4.34377 -7.98316,-4.61857 -0.11814,-0.14167 -1.18144,-0.75191 -2.36286,-1.35615 -1.18143,-0.60423 -2.63909,-1.42947 -3.23925,-1.83383 -0.60014,-0.40435 -2.166319,-1.33941 -3.480387,-2.0779 -1.314063,-0.73846 -3.626235,-2.13189 -5.138158,-3.09654 -1.511928,-0.9646 -4.102229,-2.52479 -5.756232,-3.46708 -1.654001,-0.94226 -3.973897,-2.26395 -5.155326,-2.93709 -1.181428,-0.67315 -2.341377,-1.37361 -2.577662,-1.55661 -0.236284,-0.183 -3.909457,-2.36035 -8.1626,-4.83856 -20.374423,-11.8718 -31.480903,-18.49898 -34.232098,-20.42617 -5.63527,-3.94743 -11.385923,-13.35309 -13.057367,-21.3564 -0.914225,-4.37758 -0.881412,-107.066682 0.03561,-111.499658 1.625912,-6.566783 4.863464,-12.84567 8.843144,-17.524934 2.473744,-2.877767 2.866108,-2.983062 1.851682,-0.496926 -1.748464,4.285095 -0.267238,11.149306 3.301871,15.301339 3.620653,3.657 8.703627,6.164161 12.466621,8.401034 2.219643,1.320845 8.60786,5.03268 14.196042,8.248526 10.157906,7.352369 16.591957,9.259289 27.860203,16.206889 1.738513,1.09336 10.379797,6.13714 10.514377,6.13714 0.15098,0 6.27848,3.63341 13.5438,8.03105 4.86217,3.10162 9.80523,7.56722 12.27208,12.60081 2.62075,5.47726 2.5011,3.45208 2.64086,44.69649 0.0914,26.99017 0.26714,38.10861 0.61286,38.79403 1.05057,2.08275 4.32811,2.21371 5.79864,0.23168 0.44728,-0.60282 0.56601,-8.23528 0.59679,-38.36582 0.0431,-42.0415 -0.0621,-40.47215 3.09634,-46.23922 2.13579,-3.89979 4.79671,-6.8406 8.57719,-9.47937 25.47234,-14.37051 49.86205,-29.416094 65.80845,-38.673682 8.0853,-4.407007 16.92665,-11.011216 18.44922,-13.900496 0.96885,-2.440056 2.38199,-10.473882 1.14972,-12.025639 -0.43513,-0.536877 -0.41423,-0.659883 0.11204,-0.659883 3.90097,3.270781 7.10384,8.86355 8.85615,13.28148 2.27019,5.855581 2.26331,5.651336 2.11985,63.04487 -0.13297,53.2305 -0.13297,53.2305 -1.58458,57.52297 -1.35089,3.99493 -4.71999,10.16796 -7.05235,12.92168 -2.07139,2.44558 -13.42944,10.72087 -14.71471,10.72087 -0.0909,0 -2.34698,1.31831 -5.01338,2.92961 -6.23194,3.76588 -16.20643,9.74245 -21.28062,12.75099 -9.52501,5.64749 -12.417,7.3766 -13.42534,8.02702 -0.5907,0.38103 -1.46065,0.90795 -1.93324,1.17093 -0.47256,0.263 -2.98579,1.76765 -5.58492,3.34367 -26.11024,15.83226 -31.58727,17.84344 -45.32391,16.64281 z m -18.59441,-34.56622 c 5.20787,-3.88689 3.917,-15.04578 -2.59256,-22.41176 -8.60537,-9.73745 -19.22472,-5.46583 -17.072324,6.86731 1.97918,11.34062 13.303614,20.29222 19.664884,15.54445 z M 59.174978,199.37741 c 11.31918,-4.13382 1.680641,-28.83735 -11.251421,-28.83735 -8.724323,0 -9.865373,12.9385 -1.973213,22.37448 4.938522,5.9046 9.136194,7.956 13.224634,6.46287 z M 192.66979,184.38626 c 2.72125,-1.41204 8.06129,-7.33876 9.95455,-11.04816 8.18203,-16.03089 -1.7804,-25.50162 -13.32727,-12.66949 -11.67055,12.96958 -9.21342,30.2486 3.37272,23.71765 z m -80.75493,-14.84647 c 9.08476,-6.26915 0.10123,-27.37463 -11.65201,-27.37463 -2.082593,0 -3.140558,0.22493 -4.081301,0.86768 -1.923373,1.56972 -1.907451,1.59994 -2.762211,3.50361 -4.866863,10.76644 9.797912,29.00536 18.495522,23.00334 z M 59.791065,141.45197 c 9.141541,-4.53156 2.326051,-25.22653 -9.108384,-27.65728 -12.89248,-2.74071 -13.103148,18.33165 -0.265788,26.58611 3.409868,2.19256 6.418458,2.53634 9.374172,1.07117 z M 127.01532,100.397 c -7.59866,-2.519671 -10.43777,-7.413043 -7.38004,-12.719905 2.38848,-3.346391 8.84054,-5.540915 12.26485,-6.006586 14.29191,-1.818607 25.02017,6.685093 18.55951,14.711082 -3.76733,4.680139 -15.4205,6.675969 -23.44432,4.015329 z M 77.082777,73.447699 C 69.764344,72.625928 63.719565,67.720778 64.325412,63.095482 65.740994,52.28819 91.950917,50.116239 97.580239,60.33974 101.83364,68.064407 90.976079,75.007739 77.082777,73.447699 Z M 184.65815,73.318741 c -4.53085,-0.662551 -11.10568,-3.714742 -12.44493,-8.579323 -1.61619,-8.821854 16.86163,-14.419572 28.39921,-8.603322 13.62794,6.870042 1.60463,19.819113 -15.95428,17.182695 z m -55.86192,-2.838486 c -14.06825,-4.065231 -9.06239,-15.639535 6.76407,-15.639535 14.8924,0 20.44518,10.654376 7.89729,15.152897 -2.97106,1.065156 -11.66112,1.353583 -14.66136,0.486638 z m 1.34343,-26.043765 c -8.47188,-1.814026 -13.00883,-6.854248 -10.68457,-11.869821 3.20105,-5.342026 10.85094,-6.865511 16.26952,-6.942957 18.13305,-0.05653 22.49747,14.856489 5.44392,18.6016 -2.1475,0.47161 -9.18341,0.606332 -11.02887,0.211181 z"
         id="path1286"
         sodipodi:nodetypes="csssssssssssssccsccccsccssscsccccccsssssssssccssssssssssssssccssssscccsccssssccssccsscsccsss" />
    </g>
    <path
       id="path9234"
       style="fill:none;fill-opacity:1;stroke:#7f7f7f;stroke-width:9.99999;stroke-miterlimit:4;stroke-dasharray:none;stroke-opacity:1"
       d="m 509.85547,30.90625 c -40.09243,-0.741239 -66.73519,11.209471 -153.08399,61.8125 -9.82348,5.756878 -19.32136,11.25416 -21.10742,12.21484 -1.78616,0.96061 -5.07599,2.88358 -7.30859,4.27539 -3.81105,2.37585 -14.74024,8.69315 -50.74024,29.32227 -19.17807,10.98958 -56.87788,32.82017 -80.43164,46.57617 -10.07773,5.88575 -18.6037,10.70117 -18.94726,10.70117 -3.58686,0 -27.87616,16.45633 -43.51953,28.67579 0.5916,-3.00963 -2.00255,-0.72153 -8.85157,7.24609 -0.0728,0.0856 -0.14021,0.18169 -0.21289,0.26758 -1.23634,1.12493 -2.31976,2.1608 -3.03125,2.97265 -8.81522,10.05876 -21.54857,32.60654 -26.654293,47.19922 -4.20932,12.02982 -5.18362,16.76376 -5.638672,105.23047 -0.462221,50.65817 -0.614857,113.79404 -0.453125,173.00586 -0.100178,65.25433 0.02075,107.37488 1.105469,127.05859 0.362491,17.34985 0.797965,29.3794 1.328125,31.91797 6.317291,30.24873 28.050946,65.79738 49.349606,80.7168 10.39824,7.28387 52.37518,32.33138 129.38086,77.20117 16.07486,9.36646 29.9585,17.59546 30.85156,18.28711 0.89303,0.69165 5.27695,3.34058 9.74219,5.88477 4.46525,2.54415 13.23304,7.53831 19.48438,11.09961 6.25134,3.56141 16.04148,9.45973 21.75586,13.10546 5.71434,3.64593 14.45335,8.9121 19.41992,11.70313 4.96652,2.79114 10.88605,6.32526 13.1543,7.85352 2.26832,1.52828 7.77889,4.64598 12.24414,6.92968 4.46521,2.28374 8.48317,4.59151 8.92968,5.12696 0.86627,1.03861 14.00506,8.63933 30.17188,17.45507 9.17458,5.0027 14.07552,6.85614 35.58984,13.45508 4.46517,1.36955 15.05899,3.09639 23.54297,3.83789 51.91801,4.53782 72.61836,-3.06388 171.30274,-62.90234 9.82348,-5.95661 19.32332,-11.6427 21.10937,-12.63672 1.78617,-0.99394 5.07407,-2.98567 7.30664,-4.42578 3.81105,-2.45828 14.7402,-8.99305 50.74024,-30.33789 19.17804,-11.37086 56.87785,-33.96011 80.43164,-48.19336 10.07773,-6.08995 18.6037,-11.07227 18.94726,-11.07227 4.85772,0 47.78636,-31.27639 55.61524,-40.51953 8.81522,-10.40776 21.54857,-33.73894 26.65429,-48.83789 4.36621,-12.91104 5.24632,-20.27054 5.68164,-122.21094 0.42919,-48.63751 0.56975,-107.82882 0.40625,-163.48242 0.12554,-80.6205 -0.082,-124.1456 -1.74804,-142.90234 -0.21027,-4.54035 -0.43498,-7.93663 -0.68164,-9.07813 -6.31726,-29.23449 -28.05095,-63.5906 -49.34961,-78.00976 -10.39824,-7.03964 -52.37514,-31.24804 -129.38086,-74.61328 -16.07486,-9.05243 -29.9585,-17.00538 -30.85156,-17.67383 -0.89303,-0.66845 -5.27695,-3.22666 -9.74219,-5.68555 -4.46521,-2.45885 -13.23304,-7.28661 -19.48438,-10.72851 -6.25137,-3.44198 -16.04148,-9.14251 -21.75586,-12.66602 -5.71434,-3.523646 -14.45343,-8.613083 -19.41992,-11.310547 -4.9666,-2.697528 -10.88601,-6.112808 -13.1543,-7.589844 -2.26828,-1.477028 -7.77694,-4.492069 -12.24218,-6.699218 -4.46517,-2.20715 -8.48517,-4.43564 -8.93164,-4.953125 -0.86627,-1.00379 -14.00506,-8.350954 -30.17188,-16.871094 -9.17454,-4.834968 -14.07357,-6.624288 -35.58789,-13.001953 -4.46517,-1.323625 -15.0609,-2.994286 -23.54492,-3.710938 -6.48975,-0.54821 -12.49126,-0.91364 -18.21875,-1.019531 z"
       transform="scale(0.26458333)"
       sodipodi:nodetypes="sscsscsccccccccsssssssssssssssssssssccccsssssscsssccsss" />
  </g>
</svg>
